<?xml version="1.0" standalone="no"?>
<!DOCTYPE svg PUBLIC "-//W3C//DTD SVG 20010904//EN"
 "http://www.w3.org/TR/2001/REC-SVG-20010904/DTD/svg10.dtd">
<svg version="1.0" xmlns="http://www.w3.org/2000/svg"
 width="500.000000pt" height="500.000000pt" viewBox="0 0 500.000000 500.000000"
 preserveAspectRatio="xMidYMid meet">
<metadata>
Created by potrace 1.11, written by Peter Selinger 2001-2013
</metadata>
<g transform="translate(0.000000,500.000000) scale(0.100000,-0.100000)"
fill="#000000" stroke="none">
<path d="M252 4030 c-18 -5 -18 -49 -18 -1538 l0 -1533 645 4 c356 2 660 7
676 10 17 4 44 9 60 12 238 40 414 120 551 251 71 69 105 117 152 214 75 155
103 331 78 505 -15 108 -89 278 -142 327 -14 13 -35 32 -48 43 -43 40 -113 83
-196 123 -87 41 -207 82 -240 82 -37 0 -29 19 12 30 87 23 273 142 350 224 67
70 131 186 153 277 22 94 15 352 -13 434 -58 172 -170 306 -333 396 -75 41
-112 57 -145 63 -16 3 -65 15 -109 26 -109 28 -182 39 -305 46 -129 8 -1102
11 -1128 4z m1148 -335 c210 -27 375 -120 437 -246 59 -120 63 -376 8 -497
-48 -106 -203 -229 -311 -247 -21 -4 -53 -11 -70 -16 -17 -5 -42 -12 -55 -16
-13 -3 -189 -8 -391 -10 l-368 -5 0 525 0 524 348 -2 c191 -2 372 -6 402 -10z
m115 -1353 c125 -25 234 -60 280 -92 49 -34 85 -66 85 -76 0 -3 11 -20 24 -37
125 -167 117 -457 -17 -643 -24 -33 -115 -99 -185 -134 -24 -12 -78 -31 -120
-43 -72 -19 -105 -21 -504 -25 l-428 -3 0 533 0 534 403 -1 c259 -1 423 -6
462 -13z"/>
<path d="M3133 4032 l-113 -3 0 -1534 0 -1535 875 0 875 0 0 175 0 175 -667 2
-666 3 0 1358 0 1357 -31 1 c-17 0 -60 1 -96 2 -36 1 -116 1 -177 -1z"/>
</g>
</svg>
